<?xml version="1.0" standalone="no"?>
<!DOCTYPE svg PUBLIC "-//W3C//DTD SVG 20010904//EN"
 "http://www.w3.org/TR/2001/REC-SVG-20010904/DTD/svg10.dtd">
<svg version="1.0" xmlns="http://www.w3.org/2000/svg"
 width="368.000000pt" height="368.000000pt" viewBox="0 0 368.000000 368.000000"
 preserveAspectRatio="xMidYMid meet">
<metadata>
Created by potrace 1.11, written by Peter Selinger 2001-2013
</metadata>
<g transform="translate(0.000000,368.000000) scale(0.100000,-0.100000)"
fill="#000000" stroke="none">
<path d="M1656 3669 c-865 -93 -1535 -767 -1635 -1644 -9 -78 -7 -355 3 -405
3 -14 7 -42 10 -63 47 -312 199 -652 401 -893 111 -132 250 -257 395 -355 236
-159 527 -265 805 -295 90 -10 299 -11 396 -2 299 28 622 153 884 342 401 290
671 750 740 1261 13 95 13 340 0 440 -56 433 -244 814 -549 1109 -72 70 -207
177 -291 231 -188 121 -475 230 -690 260 -27 4 -59 9 -70 11 -46 9 -326 11
-399 3z"/>
</g>
</svg>
