<?xml version="1.0" standalone="no"?>
<!DOCTYPE svg PUBLIC "-//W3C//DTD SVG 20010904//EN"
 "http://www.w3.org/TR/2001/REC-SVG-20010904/DTD/svg10.dtd">
<svg version="1.0" xmlns="http://www.w3.org/2000/svg"
 width="310.000000pt" height="310.000000pt" viewBox="0 0 310.000000 310.000000"
 preserveAspectRatio="xMidYMid meet">
<metadata>
Created by potrace 1.11, written by Peter Selinger 2001-2013
</metadata>
<g transform="translate(0.000000,310.000000) scale(0.100000,-0.100000)"
fill="#000000" stroke="none">
<path d="M1400 2679 c-238 -38 -493 -165 -600 -300 -54 -69 -72 -104 -68 -137
3 -25 7 -27 55 -30 47 -3 68 4 190 62 218 102 321 128 508 129 129 0 207 -14
290 -54 88 -41 130 -81 167 -157 32 -64 33 -71 33 -187 0 -182 -37 -297 -125
-385 -62 -63 -118 -87 -274 -119 -74 -15 -142 -33 -150 -41 -42 -34 0 -114 76
-145 63 -26 278 -32 378 -11 125 26 230 85 331 185 146 145 217 298 226 486 7
135 -9 227 -59 326 -127 254 -418 392 -818 388 -58 -1 -130 -5 -160 -10z"/>
<path d="M1305 2254 c-77 -39 -168 -161 -240 -319 -96 -210 -218 -638 -256
-900 -24 -169 -24 -468 0 -517 21 -41 59 -52 152 -44 115 11 177 31 220 75 43
43 41 26 64 436 14 251 18 285 60 485 69 326 95 501 97 643 2 133 -5 157 -46
157 -11 0 -34 -7 -51 -16z"/>
</g>
</svg>
